<svg xmlns="http://www.w3.org/2000/svg" version="1.0" preserveAspectRatio="xMidYMid meet" viewBox="79.5 257.7 1442.2 249.4">
    <g transform="translate(0.000000,667.000000) scale(0.100000,-0.100000)" fill="none" stroke="#989898" stroke-width="1">
        <path d="M7668 4073 c7 -3 12 -23 12 -51 0 -70 -74 -605 -81 -585 -15 43 -24 -97 -33 -467 l-1 -65 -35 0 c-35 0 -35 0 -41 53 -4 29 -9 55 -11 58 -11 11 -38 -288 -38 -423 0 -142 -1 -153 -18 -153 -27 0 -39 -52 -47 -197 -7 -119 -8 -123 -30 -123 -20 0 -23 6 -29 53 -3 28 -6 160 -7 292 0 132 -1 252 -2 268 -2 30 -17 38 -17 8 0 -11 -4 -22 -8 -25 -12 -7 -90 56 -97 79 -5 16 -8 17 -12 5 -18 -49 -16 -49 -334 -50 l-298 -1 -3 133 c-3 110 -6 133 -18 133 -8 0 -27 16 -42 37 -15 20 -41 44 -58 54 -28 17 -30 22 -24 60 4 26 2 44 -5 48 -7 4 -11 -1 -11 -13 0 -12 -4 -21 -9 -21 -5 0 -7 9 -4 21 4 12 0 25 -8 29 -9 6 -14 43 -17 131 l-4 122 36 -6 c45 -7 46 5 2 33 -19 11 -37 29 -39 38 -3 9 -5 -58 -6 -150 -1 -105 -5 -168 -11 -168 -5 0 -10 -11 -10 -25 0 -31 -17 -33 -23 -2 -2 12 -5 1 -6 -25 -1 -44 -5 -52 -58 -103 -31 -30 -62 -55 -69 -55 -20 0 -26 -49 -18 -162 l7 -109 -298 1 c-163 1 -304 4 -312 7 -8 3 -19 17 -25 32 -9 24 -11 25 -18 6 -10 -26 -87 -88 -99 -80 -6 3 -8 14 -6 25 2 11 0 20 -5 20 -16 0 -22 -82 -23 -321 -1 -146 -6 -235 -12 -237 -6 -1 -11 128 -13 368 l-2 370 -235 0 -235 0 0 -170 0 -170 -125 0 -125 0 0 623 c1 342 1 634 0 650 l0 27 -232 -2 -233 -3 -3 -747 -2 -748 -25 0 -25 0 0 140 0 141 -30 17 -30 17 0 203 0 202 -40 0 c-38 0 -40 2 -40 30 l0 29 -41 -14 c-23 -8 -43 -15 -45 -15 -2 0 -4 20 -4 45 0 25 -2 45 -5 45 -3 0 -24 -9 -45 -20 l-40 -20 0 -151 c0 -150 0 -150 -22 -147 -23 3 -23 5 -28 196 l-5 192 -32 -22 -33 -23 0 -169 0 -168 -31 6 c-17 3 -42 6 -55 6 l-24 0 0 195 c0 107 -4 195 -9 195 -25 0 -41 -52 -41 -130 l0 -81 -27 5 c-16 2 -54 5 -85 5 l-58 1 -2 108 -2 107 -5 -110 -6 -110 -73 -5 -72 -5 0 83 c0 80 -16 132 -41 132 -5 0 -9 -49 -9 -109 0 -121 0 -121 -71 -121 l-40 0 1 68 c2 97 3 95 -34 120 l-33 23 -89 -32 c-49 -17 -99 -37 -110 -44 -29 -19 -34 -11 -34 52 l0 53 -352 -2 -353 -3 -3 -327 c-1 -181 -3 -328 -5 -328 -1 0 -24 7 -51 15 -27 8 -62 15 -77 15 -15 0 -30 6 -32 13 -4 9 -8 9 -15 -1 -7 -10 -27 -12 -78 -9 -38 3 -73 6 -79 6 -5 0 -41 -3 -79 -6 -51 -3 -71 -1 -77 9 -6 8 -12 9 -16 3 -8 -10 -154 -42 -218 -47 -30 -3 -30 -3 -27 -61 2 -44 0 -59 -12 -63 -14 -5 -16 -32 -16 -179 0 -95 -3 -187 -6 -204 l-6 -31 -132 0 c-107 0 -139 -4 -173 -20 -43 -19 -83 -69 -83 -102 0 -17 349 -18 7196 -18 l7196 0 -7 28 c-9 38 -63 90 -105 102 -19 5 -164 10 -322 10 l-288 0 0 89 0 89 150 53 150 54 0 82 c0 67 3 83 15 83 13 0 15 24 15 157 0 150 -1 157 -25 188 -13 18 -49 49 -80 69 -155 103 -413 164 -772 182 l-143 7 0 -269 0 -269 -205 3 -205 3 0 206 0 206 -142 -6 c-337 -15 -591 -86 -712 -198 l-46 -42 0 -143 c0 -84 4 -145 10 -149 24 -15 9 -59 -32 -97 -42 -38 -58 -46 -58 -28 0 18 -153 131 -231 171 -90 45 -217 84 -304 93 -33 4 -75 9 -92 12 l-33 5 0 467 c0 257 -3 491 -6 520 l-7 52 -38 0 c-37 0 -39 -2 -39 -30 0 -27 -3 -30 -30 -30 -23 0 -30 -4 -30 -20 0 -19 -8 -20 -262 -22 -183 -2 -250 -6 -220 -12 37 -8 42 -12 42 -37 0 -21 -4 -27 -15 -23 -13 5 -15 -35 -15 -330 l0 -336 -104 0 -103 0 -7 31 c-3 17 -6 114 -6 215 0 116 -4 184 -10 184 -5 0 -10 13 -10 30 0 48 -31 245 -40 250 -4 3 -7 24 -7 47 2 42 -7 62 -20 49 -4 -4 -7 -26 -6 -49 0 -23 -3 -44 -8 -47 -7 -5 -25 -112 -36 -227 -3 -29 -9 -53 -14 -53 -5 0 -9 -79 -9 -175 0 -110 -4 -175 -10 -175 -5 0 -10 9 -10 20 0 11 -4 20 -10 20 -5 0 -10 9 -10 20 0 11 -4 20 -10 20 -5 0 -10 9 -10 20 0 13 -7 20 -20 20 -13 0 -20 -7 -20 -20 0 -11 -4 -20 -10 -20 -5 0 -10 -9 -10 -20 0 -11 -4 -20 -10 -20 -5 0 -10 -9 -10 -19 0 -10 -7 -21 -15 -25 -8 -3 -15 -15 -15 -26 0 -11 -4 -20 -10 -20 -5 0 -10 -9 -10 -20 0 -11 -4 -20 -9 -20 -4 0 -12 -19 -17 -42 -5 -23 -14 -43 -19 -45 -6 -2 -18 18 -28 43 -10 29 -43 74 -85 119 l-67 72 -72 -76 c-40 -42 -73 -80 -73 -84 0 -4 -7 -22 -16 -40 -9 -17 -20 -54 -23 -82 l-6 -50 -35 128 -35 128 -90 -3 -89 -3 -34 -115 -33 -115 1 -287 c1 -244 -1 -288 -13 -288 -12 0 -15 40 -19 238 -4 216 -6 243 -27 305 l-24 67 -41 0 -41 0 -23 -67 c-17 -55 -23 -102 -28 -245 l-7 -178 -173 0 c-167 0 -174 1 -174 20 0 11 -4 20 -10 20 -5 0 -10 -9 -10 -20 0 -28 -30 -26 -31 3 l0 22 -9 -23 c-9 -22 -11 -22 -182 -20 l-173 3 -6 175 c-4 146 -9 186 -28 243 l-23 68 -40 -3 c-40 -3 -41 -4 -64 -67 -18 -47 -24 -85 -25 -150 -1 -47 -5 -129 -9 -181 -5 -78 -7 -84 -8 -36 -2 74 -21 138 -43 143 -14 4 -17 29 -22 181 -5 165 -22 358 -35 392 -6 18 -7 15 -17 -62 -6 -46 -7 -48 -39 -48 l-33 0 -6 107 c-4 58 -7 147 -7 198 0 124 -12 258 -20 225 -6 -24 -65 367 -77 512 -6 70 -23 85 -23 20 0 -27 -61 -504 -71 -552 -1 -3 -4 6 -8 20 -10 32 -19 -109 -26 -405 -6 -224 -11 -275 -24 -275 -12 0 -171 257 -172 277 0 14 -2 15 -6 3 -3 -8 -44 -77 -91 -153 l-85 -139 -13 31 c-10 23 -13 97 -14 269 0 130 -4 275 -10 321 -9 80 -19 115 -21 75 -2 -38 -78 522 -79 578 0 36 4 58 13 61 6 3 -1 5 -18 5 -16 0 -24 -2 -17 -5z m4134 -1456 c6 -9 8 -9 8 1 0 18 59 15 67 -4 4 -11 8 -12 13 -4 10 16 60 1 60 -19 0 -13 2 -14 9 -2 8 13 16 13 53 1 68 -21 148 -59 148 -70 0 -5 6 -7 13 -5 15 6 122 -63 162 -104 l29 -31 -109 1 c-71 1 -113 5 -117 13 -6 8 -8 8 -8 -1 0 -21 -60 -16 -61 5 -1 16 -2 16 -6 0 -5 -21 -63 -25 -64 -5 0 10 -2 10 -6 0 -6 -16 -63 -17 -63 -1 0 9 -3 9 -12 0 -19 -19 -68 -15 -69 6 -1 16 -2 16 -6 0 -3 -13 -15 -18 -39 -18 -25 0 -34 4 -35 18 -1 16 -2 16 -6 0 -2 -10 -9 -18 -14 -18 -5 0 -9 57 -9 131 l0 131 27 -7 c15 -3 31 -12 35 -18z m564 -381 c3 -55 7 -103 10 -108 3 -4 -132 -8 -300 -8 l-306 0 0 85 c0 69 -3 85 -15 85 -9 0 -15 9 -15 25 l0 25 310 -2 311 -3 5 -99z m318 73 l86 -32 0 -78 0 -79 -156 0 -157 0 6 83 c4 45 7 94 7 110 0 27 1 27 64 27 47 0 87 -8 150 -31z m1676 -119 l0 -70 -60 0 -60 0 0 70 0 70 60 0 60 0 0 -70z m-5207 -15 c23 -11 37 -24 37 -36 0 -18 -10 -19 -150 -19 -142 0 -150 1 -150 20 0 54 174 77 263 35z m359 -2 c18 -10 34 -27 36 -36 3 -15 -11 -17 -151 -17 -133 0 -155 2 -153 15 9 60 186 86 268 38z"/>
    </g>
</svg>