<?xml version="1.0" standalone="no"?>

<svg version="1.0" xmlns="http://www.w3.org/2000/svg"
 width="1280.000000pt" height="188.000000pt" viewBox="0 0 1280.000000 188.000000"
 preserveAspectRatio="xMidYMid meet">

<g transform="translate(0.000000,188.000000) scale(0.100000,-0.100000)"
fill="none" stroke="#fff">
<path d="M6098 1808 c4 -72 -52 -484 -68 -503 -6 -7 -15 -112 -20 -241 -5
-126 -10 -230 -10 -232 0 -2 -10 -2 -22 0 -19 2 -25 12 -32 51 -4 26 -12 47
-16 47 -14 0 -40 -267 -40 -418 0 -73 -3 -86 -21 -101 -17 -14 -22 -35 -32
-140 -12 -120 -27 -161 -41 -109 -3 13 -6 132 -6 265 0 133 -3 248 -6 257 -8
20 -24 21 -24 1 0 -25 -21 -17 -60 24 l-36 38 -20 -22 c-19 -21 -29 -22 -271
-30 -139 -4 -257 -4 -262 0 -7 4 -11 49 -11 112 l0 107 -62 60 c-53 51 -62 64
-59 90 2 22 -3 34 -21 47 -21 16 -23 27 -26 118 l-4 101 31 0 c17 0 31 3 31 8
0 7 -65 62 -74 62 -4 0 -6 -51 -7 -112 0 -62 -7 -135 -14 -163 -7 -27 -13 -44
-14 -37 -2 25 -21 1 -21 -27 0 -22 -15 -43 -66 -91 l-67 -63 7 -110 7 -110
-188 6 c-103 4 -224 7 -269 7 -77 0 -81 1 -92 25 l-12 25 -40 -40 c-42 -42
-60 -50 -60 -25 0 18 -19 20 -25 3 -2 -7 -8 -87 -13 -178 l-9 -165 -2 258 -1
257 -215 0 -215 0 0 -150 0 -150 -105 0 -105 0 0 575 0 575 -210 0 -210 0 0
-213 c0 -118 -3 -417 -7 -665 -5 -367 -9 -452 -20 -452 -10 0 -13 28 -13 128
0 128 0 129 -25 140 l-25 12 0 179 0 180 -32 3 c-28 2 -34 8 -36 31 -4 32 0
31 -45 12 l-35 -14 -6 39 c-3 22 -8 40 -11 40 -2 0 -20 -7 -38 -16 l-34 -16
-7 -132 c-4 -72 -9 -133 -12 -135 -13 -14 -19 28 -22 175 -5 173 -7 180 -50
145 -21 -18 -22 -26 -22 -165 0 -145 0 -146 -22 -146 -13 0 -33 3 -45 6 -23 6
-23 9 -23 175 0 145 -2 169 -15 169 -22 0 -35 -42 -35 -116 l0 -64 -69 0 -68
0 -7 61 c-3 34 -7 78 -7 98 -1 20 -5 -6 -9 -57 -5 -51 -10 -95 -12 -97 -1 -2
-29 -6 -60 -10 l-58 -7 0 77 c0 80 -11 115 -35 115 -12 0 -15 -17 -15 -84 0
-109 -3 -116 -51 -116 l-39 0 0 68 c0 59 -3 72 -23 90 -31 29 -46 28 -149 -12
l-88 -33 0 48 0 49 -319 0 -319 0 -3 -284 c-2 -156 -6 -286 -9 -289 -6 -6
-111 15 -127 26 -7 4 -21 4 -30 -1 -16 -7 -222 -7 -263 0 -8 1 -49 -5 -90 -14
-41 -9 -92 -20 -112 -23 -38 -6 -38 -6 -38 -53 0 -27 -6 -54 -12 -60 -9 -9
-15 -67 -18 -185 l-5 -172 -120 -6 c-138 -8 -161 -15 -199 -59 -56 -67 -75
-64 474 -71 272 -3 3147 -7 6388 -8 5443 -1 5892 0 5892 15 0 27 -36 78 -70
97 -27 16 -64 19 -300 24 l-270 6 0 71 0 71 133 46 132 46 3 69 c2 38 7 73 13
78 5 6 9 75 9 155 l0 144 -42 40 c-116 110 -376 180 -755 203 l-113 6 0 -242
0 -243 -92 7 c-50 3 -129 6 -175 6 l-83 0 0 180 0 180 -73 0 c-290 0 -584 -74
-696 -176 l-43 -38 3 -157 c3 -155 3 -159 -21 -184 -13 -14 -27 -25 -31 -25
-4 0 -41 25 -81 55 -137 103 -261 154 -429 177 l-89 12 0 401 c0 221 -3 430
-6 464 l-7 62 -36 -3 c-28 -2 -36 -8 -41 -28 -3 -14 -14 -27 -25 -29 -11 -2
-24 -9 -28 -17 -6 -11 -36 -14 -120 -15 -169 -2 -326 -14 -299 -24 22 -7 30
-39 12 -50 -6 -4 -10 -113 -10 -296 l0 -289 -88 0 -89 0 -6 98 c-4 53 -7 133
-7 176 0 44 -4 105 -10 135 -5 31 -20 113 -32 184 -23 132 -38 154 -50 76 -3
-24 -17 -102 -29 -174 -14 -79 -24 -187 -26 -274 l-4 -145 -25 52 c-14 29 -31
52 -39 52 -8 0 -26 -24 -40 -52 -14 -29 -34 -66 -44 -83 -10 -16 -26 -52 -36
-78 l-18 -48 -28 48 c-15 26 -50 73 -78 103 l-50 55 -70 -71 c-59 -59 -72 -80
-88 -132 l-18 -61 -26 97 c-14 55 -31 97 -37 96 -7 -1 -45 -2 -85 -3 l-74 -1
-31 -109 c-32 -108 -32 -113 -34 -348 l-1 -238 -8 201 c-7 145 -14 218 -27
260 l-18 59 -43 0 c-42 0 -45 -2 -58 -40 -17 -50 -33 -193 -33 -307 l0 -88
-119 0 c-135 0 -181 7 -181 26 0 19 -19 17 -27 -2 -6 -16 -7 -16 -18 0 -10 13
-14 14 -18 3 -8 -22 -62 -28 -188 -21 l-116 7 -7 150 c-5 104 -14 170 -27 214
-21 67 -31 73 -82 54 -33 -13 -55 -89 -63 -221 -6 -81 -9 -98 -15 -75 -5 16
-15 35 -23 41 -11 8 -17 56 -25 205 -14 239 -23 309 -41 309 -6 0 -10 -12 -10
-27 0 -51 -11 -73 -35 -73 -21 0 -22 5 -28 113 -4 61 -7 153 -7 202 0 50 -7
117 -15 148 -13 49 -47 273 -70 454 -4 29 -11 55 -15 58 -11 7 -11 3 -46 -280
-15 -121 -31 -223 -37 -227 -11 -7 -25 -207 -27 -388 -1 -63 -5 -137 -8 -165
l-7 -50 -53 83 c-29 45 -63 103 -75 127 -12 24 -24 44 -27 44 -3 0 -38 -56
-79 -124 -48 -80 -78 -122 -84 -116 -6 6 -13 135 -17 288 -6 210 -12 289 -23
323 -22 62 -70 427 -65 495 3 50 1 55 -17 55 -18 0 -20 -6 -17 -62z m57 -332
c14 -99 31 -186 37 -194 8 -9 14 -106 18 -290 4 -195 10 -284 19 -301 12 -22
15 -20 73 75 33 55 68 112 78 128 l17 28 38 -63 c77 -128 117 -181 127 -171 6
6 14 120 19 269 6 182 13 273 24 308 9 28 28 151 44 275 16 124 31 214 34 200
3 -14 15 -100 27 -191 12 -92 30 -202 40 -245 13 -50 20 -114 20 -175 0 -53 3
-144 7 -202 l6 -107 33 0 c32 0 34 2 41 43 l7 42 8 -50 c4 -27 12 -137 18
-244 9 -153 14 -197 26 -205 17 -13 33 -72 34 -126 2 -78 17 9 24 135 9 188
34 255 96 255 22 0 48 -129 55 -276 l7 -152 132 -6 c76 -4 144 -3 163 3 23 7
33 6 37 -2 3 -8 10 -6 19 6 11 13 16 15 19 5 4 -10 44 -14 161 -16 l157 -3 0
78 c1 115 17 272 33 318 13 36 17 40 48 40 32 0 34 -2 51 -57 12 -41 19 -113
24 -257 7 -191 13 -235 31 -217 4 4 8 121 8 259 1 247 2 254 29 349 l29 98 76
0 76 0 29 -110 c28 -108 46 -139 46 -80 0 60 37 133 101 195 l61 60 49 -55
c27 -30 59 -74 71 -97 13 -24 28 -43 34 -43 6 0 19 21 29 48 10 26 26 61 36
77 10 17 30 54 44 83 15 28 28 52 30 52 3 0 16 -25 31 -56 14 -31 30 -52 34
-47 5 4 11 71 13 148 2 79 14 197 26 270 12 72 26 150 30 175 l7 45 6 -35 c29
-168 39 -222 48 -271 5 -30 10 -104 10 -165 0 -60 3 -139 7 -176 l6 -68 98 0
99 0 0 289 c0 250 2 290 16 302 9 7 13 21 10 34 -5 21 -2 22 107 28 61 4 149
7 194 7 59 0 84 4 90 14 4 8 17 15 28 17 12 3 21 14 23 27 3 22 46 42 60 27 4
-3 8 -213 10 -465 l4 -458 66 -7 c93 -10 205 -40 280 -75 72 -34 207 -124 227
-153 17 -24 46 -16 78 22 23 28 24 32 19 183 l-5 153 41 37 c107 97 327 159
617 174 l125 7 0 -181 0 -182 78 0 c42 0 128 -3 190 -7 l112 -6 0 242 0 242
103 -6 c372 -23 630 -93 745 -202 l42 -40 0 -134 c0 -74 -4 -139 -9 -145 -6
-5 -11 -40 -13 -78 l-3 -69 -132 -46 -133 -46 0 -81 0 -81 270 -6 c236 -5 273
-8 300 -24 28 -16 70 -69 70 -87 0 -13 -12738 -2 -12750 10 -14 14 32 71 69
86 14 5 80 13 146 17 l120 6 5 172 c3 118 9 176 18 185 6 6 12 33 12 60 0 47
0 47 38 53 20 3 69 12 107 20 86 16 388 13 458 -5 26 -7 51 -9 55 -5 4 3 8
135 10 291 l3 284 310 0 309 0 0 -51 c0 -59 -12 -58 123 -8 l87 32 25 -23 c22
-21 25 -32 25 -92 l0 -68 49 0 c59 0 61 3 61 118 1 79 2 85 15 68 10 -14 15
-45 15 -98 0 -88 -4 -85 94 -72 38 6 46 11 47 28 2 20 2 20 6 -1 4 -21 10 -23
68 -23 35 0 70 -3 78 -6 12 -4 16 10 18 80 3 50 9 90 17 98 9 10 12 -22 12
-160 l0 -171 38 -6 c20 -3 45 -8 54 -10 17 -3 18 10 18 148 1 150 1 152 25
170 l25 18 0 -124 c0 -164 7 -217 30 -217 22 0 30 43 30 171 0 93 1 96 25 107
35 16 33 17 41 -23 7 -38 10 -40 47 -26 21 8 26 6 36 -15 8 -18 19 -24 41 -24
l30 0 0 -180 0 -180 25 -12 c25 -11 25 -12 25 -140 0 -128 0 -128 23 -128 l24
0 6 227 c4 124 7 424 7 665 l0 438 200 0 200 0 0 -575 0 -575 115 0 115 0 0
150 0 150 205 0 205 0 0 -242 c0 -261 8 -408 21 -408 5 0 10 55 10 123 2 124
14 376 17 345 1 -10 5 -18 8 -18 14 0 75 43 88 62 14 19 14 19 20 0 6 -17 21
-19 209 -25 111 -4 237 -7 281 -7 l79 0 -8 109 -7 110 66 62 c45 42 66 69 66
85 0 14 6 24 14 24 9 0 17 16 21 42 7 41 8 41 21 17 7 -13 13 -32 14 -41 0
-21 16 -24 24 -5 3 6 3 -3 0 -21 -5 -30 0 -37 60 -95 l66 -63 0 -112 0 -112
88 0 c49 0 171 3 272 7 153 5 186 9 200 23 16 16 18 16 29 -2 13 -21 71 -59
81 -53 12 7 20 -120 20 -305 0 -196 4 -220 31 -220 25 0 26 4 38 140 8 97 13
117 30 131 18 15 21 28 21 91 0 93 19 347 27 373 6 17 8 16 12 -10 5 -25 11
-31 38 -33 l31 -3 6 73 c3 40 8 145 11 233 3 87 9 162 14 165 10 5 54 291 68
430 l7 75 8 -70 c4 -38 19 -151 33 -249z"/>
<path d="M9710 482 l0 -121 280 0 c165 0 280 4 280 9 0 16 -101 86 -185 128
-75 38 -172 72 -221 76 -11 1 -25 5 -31 9 -6 4 -26 7 -45 6 -18 -1 -43 2 -55
6 -23 7 -23 7 -23 -113z m78 90 c9 9 18 8 36 -1 13 -8 29 -10 35 -7 6 4 19 -2
30 -13 12 -12 23 -15 28 -10 20 20 228 -78 303 -142 l35 -29 -115 1 c-63 2
-120 6 -127 11 -7 5 -14 5 -18 -2 -8 -14 -45 -13 -45 1 0 8 -4 8 -12 2 -17
-14 -111 -13 -121 1 -6 8 -10 7 -14 -1 -6 -16 -49 -17 -59 -2 -4 8 -9 7 -15
-2 -5 -8 -9 32 -9 99 l0 113 29 -15 c21 -11 31 -12 39 -4z"/>
<path d="M9710 306 c0 -13 4 -26 10 -28 5 -1 12 -36 16 -75 l7 -73 268 0 269
0 0 33 c0 17 -3 62 -7 100 l-6 67 -278 0 -279 0 0 -24z m550 -15 c0 -15 3 -56
6 -90 l7 -61 -260 0 -260 0 -5 72 c-3 40 -11 74 -17 76 -6 2 -11 10 -11 18 0
12 44 14 270 14 l270 0 0 -29z"/>
<path d="M10356 284 c-3 -26 -6 -71 -6 -100 l0 -54 140 0 140 0 0 74 0 74 -78
26 c-46 16 -100 26 -133 26 l-56 0 -7 -46z m186 10 l78 -26 0 -64 0 -64 -130
0 -130 0 0 38 c0 20 3 61 6 90 l7 52 46 0 c25 0 81 -12 123 -26z"/>
<path d="M7595 203 c-62 -8 -119 -46 -98 -67 3 -3 67 -6 140 -6 119 0 134 2
131 16 -7 40 -91 67 -173 57z"/>
<path d="M7208 184 c-16 -8 -28 -23 -28 -35 0 -19 6 -19 137 -17 149 3 170 12
111 48 -41 25 -177 28 -220 4z"/>
</g>
</svg>
